<svg width="192" height="192" viewBox="0 0 192 192" fill="none" xmlns="http://www.w3.org/2000/svg">
<g clip-path="url(#clip0_130_3)">
<rect width="192" height="192" rx="15" fill="url(#paint0_linear_130_3)"/>
<path d="M46 146V52.25C46 48.8125 47.224 45.8698 49.6719 43.4219C52.1198 40.974 55.0625 39.75 58.5 39.75H96C99.4375 39.75 102.38 40.974 104.828 43.4219C107.276 45.8698 108.5 48.8125 108.5 52.25V96H114.75C118.188 96 121.13 97.224 123.578 99.6719C126.026 102.12 127.25 105.062 127.25 108.5V136.625C127.25 138.396 127.849 139.88 129.047 141.078C130.245 142.276 131.729 142.875 133.5 142.875C135.271 142.875 136.755 142.276 137.953 141.078C139.151 139.88 139.75 138.396 139.75 136.625V91.625C138.812 92.1458 137.823 92.4844 136.781 92.6406C135.74 92.7969 134.646 92.875 133.5 92.875C129.125 92.875 125.427 91.3646 122.406 88.3438C119.385 85.3229 117.875 81.625 117.875 77.25C117.875 73.9167 118.786 70.9219 120.609 68.2656C122.432 65.6094 124.854 63.7083 127.875 62.5625L118.031 52.7188C117.094 51.7812 116.625 50.6875 116.625 49.4375C116.625 48.1875 117.094 47.0938 118.031 46.1562C118.865 45.3229 119.932 44.8802 121.234 44.8281C122.536 44.776 123.656 45.1667 124.594 46L144.438 65.375C146 66.9375 147.172 68.7604 147.953 70.8438C148.734 72.9271 149.125 75.0625 149.125 77.25V136.625C149.125 141 147.615 144.698 144.594 147.719C141.573 150.74 137.875 152.25 133.5 152.25C129.125 152.25 125.427 150.74 122.406 147.719C119.385 144.698 117.875 141 117.875 136.625V105.375H108.5V146C108.5 147.771 107.901 149.255 106.703 150.453C105.505 151.651 104.021 152.25 102.25 152.25H52.25C50.4792 152.25 48.9948 151.651 47.7969 150.453C46.599 149.255 46 147.771 46 146ZM58.5 83.5H96V52.25H58.5V83.5ZM133.5 83.5C135.271 83.5 136.755 82.901 137.953 81.7031C139.151 80.5052 139.75 79.0208 139.75 77.25C139.75 75.4792 139.151 73.9948 137.953 72.7969C136.755 71.599 135.271 71 133.5 71C131.729 71 130.245 71.599 129.047 72.7969C127.849 73.9948 127.25 75.4792 127.25 77.25C127.25 79.0208 127.849 80.5052 129.047 81.7031C130.245 82.901 131.729 83.5 133.5 83.5Z" fill="white"/>
</g>
<defs>
<linearGradient id="paint0_linear_130_3" x1="24.6316" y1="3.05717e-06" x2="123.158" y2="192" gradientUnits="userSpaceOnUse">
<stop stop-color="#B3D089"/>
<stop offset="0.403193" stop-color="#4D662A"/>
</linearGradient>
<clipPath id="clip0_130_3">
<rect width="192" height="192" fill="white"/>
</clipPath>
</defs>
</svg>
