<svg width="192" height="192" viewBox="0 0 192 192" fill="none" xmlns="http://www.w3.org/2000/svg">
<g clip-path="url(#clip0_130_3)">
<rect width="192" height="192" rx="15" fill="url(#paint0_linear_130_3)"/>
<path d="M51 151V57.25C51 53.8125 52.224 50.8698 54.6719 48.4219C57.1198 45.974 60.0625 44.75 63.5 44.75H101C104.438 44.75 107.38 45.974 109.828 48.4219C112.276 50.8698 113.5 53.8125 113.5 57.25V101H119.75C123.188 101 126.13 102.224 128.578 104.672C131.026 107.12 132.25 110.062 132.25 113.5V141.625C132.25 143.396 132.849 144.88 134.047 146.078C135.245 147.276 136.729 147.875 138.5 147.875C140.271 147.875 141.755 147.276 142.953 146.078C144.151 144.88 144.75 143.396 144.75 141.625V96.625C143.812 97.1458 142.823 97.4844 141.781 97.6406C140.74 97.7969 139.646 97.875 138.5 97.875C134.125 97.875 130.427 96.3646 127.406 93.3438C124.385 90.3229 122.875 86.625 122.875 82.25C122.875 78.9167 123.786 75.9219 125.609 73.2656C127.432 70.6094 129.854 68.7083 132.875 67.5625L123.031 57.7188C122.094 56.7812 121.625 55.6875 121.625 54.4375C121.625 53.1875 122.094 52.0938 123.031 51.1562C123.865 50.3229 124.932 49.8802 126.234 49.8281C127.536 49.776 128.656 50.1667 129.594 51L149.438 70.375C151 71.9375 152.172 73.7604 152.953 75.8438C153.734 77.9271 154.125 80.0625 154.125 82.25V141.625C154.125 146 152.615 149.698 149.594 152.719C146.573 155.74 142.875 157.25 138.5 157.25C134.125 157.25 130.427 155.74 127.406 152.719C124.385 149.698 122.875 146 122.875 141.625V110.375H113.5V151C113.5 152.771 112.901 154.255 111.703 155.453C110.505 156.651 109.021 157.25 107.25 157.25H57.25C55.4792 157.25 53.9948 156.651 52.7969 155.453C51.599 154.255 51 152.771 51 151ZM63.5 88.5H101V57.25H63.5V88.5ZM138.5 88.5C140.271 88.5 141.755 87.901 142.953 86.7031C144.151 85.5052 144.75 84.0208 144.75 82.25C144.75 80.4792 144.151 78.9948 142.953 77.7969C141.755 76.599 140.271 76 138.5 76C136.729 76 135.245 76.599 134.047 77.7969C132.849 78.9948 132.25 80.4792 132.25 82.25C132.25 84.0208 132.849 85.5052 134.047 86.7031C135.245 87.901 136.729 88.5 138.5 88.5Z" fill="black" fill-opacity="0.5"/>
<path d="M46 146V52.25C46 48.8125 47.224 45.8698 49.6719 43.4219C52.1198 40.974 55.0625 39.75 58.5 39.75H96C99.4375 39.75 102.38 40.974 104.828 43.4219C107.276 45.8698 108.5 48.8125 108.5 52.25V96H114.75C118.188 96 121.13 97.224 123.578 99.6719C126.026 102.12 127.25 105.062 127.25 108.5V136.625C127.25 138.396 127.849 139.88 129.047 141.078C130.245 142.276 131.729 142.875 133.5 142.875C135.271 142.875 136.755 142.276 137.953 141.078C139.151 139.88 139.75 138.396 139.75 136.625V91.625C138.812 92.1458 137.823 92.4844 136.781 92.6406C135.74 92.7969 134.646 92.875 133.5 92.875C129.125 92.875 125.427 91.3646 122.406 88.3438C119.385 85.3229 117.875 81.625 117.875 77.25C117.875 73.9167 118.786 70.9219 120.609 68.2656C122.432 65.6094 124.854 63.7083 127.875 62.5625L118.031 52.7188C117.094 51.7812 116.625 50.6875 116.625 49.4375C116.625 48.1875 117.094 47.0938 118.031 46.1562C118.865 45.3229 119.932 44.8802 121.234 44.8281C122.536 44.776 123.656 45.1667 124.594 46L144.438 65.375C146 66.9375 147.172 68.7604 147.953 70.8438C148.734 72.9271 149.125 75.0625 149.125 77.25V136.625C149.125 141 147.615 144.698 144.594 147.719C141.573 150.74 137.875 152.25 133.5 152.25C129.125 152.25 125.427 150.74 122.406 147.719C119.385 144.698 117.875 141 117.875 136.625V105.375H108.5V146C108.5 147.771 107.901 149.255 106.703 150.453C105.505 151.651 104.021 152.25 102.25 152.25H52.25C50.4792 152.25 48.9948 151.651 47.7969 150.453C46.599 149.255 46 147.771 46 146ZM58.5 83.5H96V52.25H58.5V83.5ZM133.5 83.5C135.271 83.5 136.755 82.901 137.953 81.7031C139.151 80.5052 139.75 79.0208 139.75 77.25C139.75 75.4792 139.151 73.9948 137.953 72.7969C136.755 71.599 135.271 71 133.5 71C131.729 71 130.245 71.599 129.047 72.7969C127.849 73.9948 127.25 75.4792 127.25 77.25C127.25 79.0208 127.849 80.5052 129.047 81.7031C130.245 82.901 131.729 83.5 133.5 83.5Z" fill="white"/>
</g>
<defs>
<linearGradient id="paint0_linear_130_3" x1="24.6316" y1="3.05717e-06" x2="123.158" y2="192" gradientUnits="userSpaceOnUse">
<stop stop-color="#B3D089"/>
<stop offset="0.403193" stop-color="#4D662A"/>
</linearGradient>
<clipPath id="clip0_130_3">
<rect width="192" height="192" fill="white"/>
</clipPath>
</defs>
</svg>
